<svg fill="none" height="512" viewBox="0 0 36 36" width="512" xmlns="http://www.w3.org/2000/svg"><g id="36 Multicolor / Flag / mc_36_flag_thailand"><g id="mc_36_flag_Thailand"><path id="Oval" d="m18 36c9.9411 0 18-8.0589 18-18 0-9.94113-8.0589-18-18-18-9.94113 0-18 8.05887-18 18 0 9.9411 8.05887 18 18 18z" fill="#f0f0f0"/><path id="Path" d="m34.88 11.74h-33.76c-.742732 2.0034-1.12200956 4.1233-1.11999871 6.26-.00212985 2.137.37714971 4.2573 1.11999871 6.261h33.76c.7429-2.0037 1.1221-4.124 1.12-6.261.0021-2.137-.3771-4.2572-1.12-6.261z" fill="#0052b4"/><path id="Shape" clip-rule="evenodd" d="m4.355 6.26c3.301-3.833 8.189-6.26 13.645-6.26s10.344 2.427 13.655 6.26zm-.01 23.48h27.3c-3.301 3.833-8.189 6.26-13.645 6.26s-10.344-2.427-13.655-6.26z" fill="#d80027" fill-rule="evenodd"/></g></g></svg>